<svg width="17" height="17" viewBox="0 0 17 17" fill="none" xmlns="http://www.w3.org/2000/svg">
  <path
    d="M1.255 1.255C1.38833 1.12147 1.54668 1.01555 1.72098 0.943275C1.89529 0.871002 2.08214 0.833801 2.27083 0.833801C2.45953 0.833801 2.64637 0.871002 2.82068 0.943275C2.99498 1.01555 3.15333 1.12147 3.28666 1.255L8.5 6.46641L13.7133 1.255C13.8467 1.1216 14.0051 1.01578 14.1794 0.94358C14.3537 0.871384 14.5405 0.834225 14.7292 0.834225C14.9178 0.834225 15.1046 0.871384 15.2789 0.94358C15.4532 1.01578 15.6116 1.1216 15.745 1.255C15.8784 1.3884 15.9842 1.54677 16.0564 1.72107C16.1286 1.89536 16.1658 2.08217 16.1658 2.27083C16.1658 2.45949 16.1286 2.6463 16.0564 2.8206C15.9842 2.99489 15.8784 3.15326 15.745 3.28666L10.5336 8.5L15.745 13.7133C16.0144 13.9827 16.1658 14.3482 16.1658 14.7292C16.1658 15.1102 16.0144 15.4756 15.745 15.745C15.4756 16.0144 15.1102 16.1658 14.7292 16.1658C14.3482 16.1658 13.9827 16.0144 13.7133 15.745L8.5 10.5336L3.28666 15.745C3.01725 16.0144 2.65184 16.1658 2.27083 16.1658C1.88982 16.1658 1.52441 16.0144 1.255 15.745C0.985582 15.4756 0.834225 15.1102 0.834225 14.7292C0.834225 14.3482 0.985582 13.9827 1.255 13.7133L6.46641 8.5L1.255 3.28666C1.12147 3.15333 1.01555 2.99498 0.943275 2.82068C0.871002 2.64637 0.833801 2.45953 0.833801 2.27083C0.833801 2.08214 0.871002 1.89529 0.943275 1.72098C1.01555 1.54668 1.12147 1.38833 1.255 1.255Z"
    fill="white"/>
</svg>

